<svg viewBox="42.15 168.75 291.72 78.85018867924528" version="1.2" preserveAspectRatio="xMidYMid meet" zoomAndPan="magnify" xmlns:xlink="http://www.w3.org/1999/xlink" xmlns="http://www.w3.org/2000/svg" style="max-height: 500px" width="291.72" height="78.85018867924528"><defs/><g id="112d80c352"><g style="fill:#8c52ff;fill-opacity:1;"><g transform="translate(40.460631, 211.874986)"><path d="M 18 0.953125 C 18 0.953125 17.453125 0.722656 16.359375 0.265625 C 15.265625 -0.179688 13.90625 -0.921875 12.28125 -1.953125 C 10.65625 -2.992188 9.023438 -4.351562 7.390625 -6.03125 C 5.765625 -7.71875 4.40625 -9.785156 3.3125 -12.234375 C 2.226562 -14.691406 1.6875 -17.546875 1.6875 -20.796875 C 1.6875 -24.109375 2.226562 -26.988281 3.3125 -29.4375 C 4.40625 -31.894531 5.765625 -33.988281 7.390625 -35.71875 C 9.023438 -37.445312 10.65625 -38.859375 12.28125 -39.953125 C 13.90625 -41.046875 15.265625 -41.847656 16.359375 -42.359375 C 17.453125 -42.867188 18 -43.125 18 -43.125 C 18 -43.125 17.742188 -42.882812 17.234375 -42.40625 C 16.734375 -41.925781 16.148438 -40.953125 15.484375 -39.484375 C 14.816406 -38.015625 14.226562 -35.8125 13.71875 -32.875 C 13.207031 -29.945312 12.953125 -26.03125 12.953125 -21.125 C 12.953125 -16.21875 13.207031 -12.28125 13.71875 -9.3125 C 14.226562 -6.351562 14.816406 -4.140625 15.484375 -2.671875 C 16.148438 -1.210938 16.734375 -0.242188 17.234375 0.234375 C 17.742188 0.710938 18 0.953125 18 0.953125 Z M 28.234375 -32.640625 C 26.898438 -32.640625 25.753906 -33.101562 24.796875 -34.03125 C 23.835938 -34.96875 23.359375 -36.101562 23.359375 -37.4375 C 23.359375 -38.820312 23.835938 -39.976562 24.796875 -40.90625 C 25.753906 -41.84375 26.898438 -42.3125 28.234375 -42.3125 C 29.617188 -42.3125 30.78125 -41.84375 31.71875 -40.90625 C 32.65625 -39.976562 33.125 -38.820312 33.125 -37.4375 C 33.125 -36.101562 32.65625 -34.96875 31.71875 -34.03125 C 30.78125 -33.101562 29.617188 -32.640625 28.234375 -32.640625 Z M 28.234375 -32.640625" style="stroke:none"/></g></g><g style="fill:#8c52ff;fill-opacity:1;"><g transform="translate(72.937245, 211.874986)"><path d="M 17.28125 0 L 17.28125 -20.875 C 17.28125 -22.15625 17 -23.195312 16.4375 -24 C 15.875 -24.800781 15.242188 -25.398438 14.546875 -25.796875 C 13.859375 -26.203125 13.234375 -26.484375 12.671875 -26.640625 C 12.117188 -26.796875 11.84375 -26.875 11.84375 -26.875 C 15.144531 -27.625 17.925781 -27.613281 20.1875 -26.84375 C 22.457031 -26.070312 24.179688 -24.84375 25.359375 -23.15625 C 26.535156 -21.476562 27.125 -19.65625 27.125 -17.6875 L 27.125 0 Z M 7.84375 -16 C 6.507812 -16 5.359375 -16.476562 4.390625 -17.4375 C 3.429688 -18.394531 2.953125 -19.539062 2.953125 -20.875 C 2.953125 -22.207031 3.429688 -23.34375 4.390625 -24.28125 C 5.359375 -25.21875 6.507812 -25.6875 7.84375 -25.6875 C 9.175781 -25.6875 10.320312 -25.21875 11.28125 -24.28125 C 12.238281 -23.34375 12.71875 -22.207031 12.71875 -20.875 C 12.71875 -19.539062 12.238281 -18.394531 11.28125 -17.4375 C 10.320312 -16.476562 9.175781 -16 7.84375 -16 Z M 10.484375 0.71875 C 9.304688 0.9375 8.117188 0.976562 6.921875 0.84375 C 5.722656 0.707031 4.695312 0.210938 3.84375 -0.640625 C 2.820312 -1.703125 2.242188 -3.003906 2.109375 -4.546875 C 1.984375 -6.097656 2.265625 -7.488281 2.953125 -8.71875 C 3.597656 -9.945312 4.503906 -10.972656 5.671875 -11.796875 C 6.847656 -12.628906 8.101562 -13.257812 9.4375 -13.6875 C 10.132812 -13.894531 10.816406 -14.023438 11.484375 -14.078125 C 12.148438 -14.128906 12.828125 -14.15625 13.515625 -14.15625 C 12.878906 -13.625 12.226562 -12.835938 11.5625 -11.796875 C 10.894531 -10.753906 10.398438 -9.617188 10.078125 -8.390625 C 9.753906 -7.171875 9.753906 -5.945312 10.078125 -4.71875 C 10.398438 -3.539062 11.082031 -2.632812 12.125 -2 C 13.164062 -1.363281 14.269531 -1.148438 15.4375 -1.359375 C 14.800781 -0.828125 14.015625 -0.382812 13.078125 -0.03125 C 12.148438 0.3125 11.285156 0.5625 10.484375 0.71875 Z M 10.484375 0.71875" style="stroke:none"/></g></g><g style="fill:#8c52ff;fill-opacity:1;"><g transform="translate(100.694315, 211.874986)"><path d="M 3.359375 -42.078125 L 13.28125 -42.078125 L 13.28125 0 L 3.359375 0 Z M 19.046875 -20.3125 L 33.4375 0 L 21.6875 0 L 13.28125 -12.3125 Z M 19.046875 -20.3125" style="stroke:none"/></g></g><g style="fill:#8c52ff;fill-opacity:1;"><g transform="translate(131.811062, 211.874986)"><path d="M 15.921875 0.953125 C 13.304688 0.953125 10.914062 0.316406 8.75 -0.953125 C 6.59375 -2.234375 4.875 -3.941406 3.59375 -6.078125 C 2.320312 -8.210938 1.6875 -10.585938 1.6875 -13.203125 C 1.6875 -15.765625 2.296875 -18.097656 3.515625 -20.203125 C 4.742188 -22.304688 6.394531 -24.007812 8.46875 -25.3125 C 10.550781 -26.625 12.875 -27.304688 15.4375 -27.359375 C 14.476562 -27.203125 13.675781 -26.75 13.03125 -26 C 12.394531 -25.25 12.078125 -24.289062 12.078125 -23.125 L 12.078125 -7.6875 C 12.078125 -5.863281 12.660156 -4.390625 13.828125 -3.265625 C 15.003906 -2.148438 16.445312 -1.394531 18.15625 -1 C 19.863281 -0.601562 21.519531 -0.585938 23.125 -0.953125 C 20.832031 0.378906 18.429688 1.015625 15.921875 0.953125 Z M 20.15625 -14.484375 L 20.15625 -20.953125 C 20.15625 -23.191406 19.742188 -24.789062 18.921875 -25.75 C 18.097656 -26.71875 17.226562 -27.253906 16.3125 -27.359375 C 19.09375 -27.359375 21.320312 -26.863281 23 -25.875 C 24.675781 -24.894531 25.953125 -23.671875 26.828125 -22.203125 C 27.710938 -20.734375 28.300781 -19.289062 28.59375 -17.875 C 28.894531 -16.46875 29.046875 -15.335938 29.046875 -14.484375 Z M 20.15625 -14.484375" style="stroke:none"/></g></g><g style="fill:#8c52ff;fill-opacity:1;"><g transform="translate(159.728121, 211.874986)"><path d="M 3.359375 -0.078125 L 3.359375 -42.234375 L 13.28125 -42.15625 L 13.28125 -0.078125 Z M 20.953125 -42.15625 L 30.796875 -42.15625 L 30.796875 -32.40625 C 30.796875 -32.40625 30.554688 -32.988281 30.078125 -34.15625 C 29.597656 -35.332031 28.585938 -36.75 27.046875 -38.40625 C 25.546875 -40 24.15625 -41.019531 22.875 -41.46875 C 21.59375 -41.925781 20.953125 -42.15625 20.953125 -42.15625 Z M 16.15625 -20.3125 C 16.425781 -20.3125 17 -20.539062 17.875 -21 C 18.757812 -21.457031 19.707031 -22.21875 20.71875 -23.28125 C 21.945312 -24.507812 22.734375 -25.585938 23.078125 -26.515625 C 23.421875 -27.453125 23.59375 -27.921875 23.59375 -27.921875 L 23.59375 -12.71875 C 23.59375 -12.71875 23.421875 -13.179688 23.078125 -14.109375 C 22.734375 -15.046875 21.945312 -16.128906 20.71875 -17.359375 C 19.707031 -18.421875 18.757812 -19.175781 17.875 -19.625 C 17 -20.082031 16.425781 -20.3125 16.15625 -20.3125 Z M 16.15625 -20.3125" style="stroke:none"/></g></g><g style="fill:#8c52ff;fill-opacity:1;"><g transform="translate(184.845452, 211.874986)"><path d="M 17.28125 0 L 17.28125 -20.875 C 17.28125 -22.15625 17 -23.195312 16.4375 -24 C 15.875 -24.800781 15.242188 -25.398438 14.546875 -25.796875 C 13.859375 -26.203125 13.234375 -26.484375 12.671875 -26.640625 C 12.117188 -26.796875 11.84375 -26.875 11.84375 -26.875 C 15.144531 -27.625 17.925781 -27.613281 20.1875 -26.84375 C 22.457031 -26.070312 24.179688 -24.84375 25.359375 -23.15625 C 26.535156 -21.476562 27.125 -19.65625 27.125 -17.6875 L 27.125 0 Z M 7.84375 -16 C 6.507812 -16 5.359375 -16.476562 4.390625 -17.4375 C 3.429688 -18.394531 2.953125 -19.539062 2.953125 -20.875 C 2.953125 -22.207031 3.429688 -23.34375 4.390625 -24.28125 C 5.359375 -25.21875 6.507812 -25.6875 7.84375 -25.6875 C 9.175781 -25.6875 10.320312 -25.21875 11.28125 -24.28125 C 12.238281 -23.34375 12.71875 -22.207031 12.71875 -20.875 C 12.71875 -19.539062 12.238281 -18.394531 11.28125 -17.4375 C 10.320312 -16.476562 9.175781 -16 7.84375 -16 Z M 10.484375 0.71875 C 9.304688 0.9375 8.117188 0.976562 6.921875 0.84375 C 5.722656 0.707031 4.695312 0.210938 3.84375 -0.640625 C 2.820312 -1.703125 2.242188 -3.003906 2.109375 -4.546875 C 1.984375 -6.097656 2.265625 -7.488281 2.953125 -8.71875 C 3.597656 -9.945312 4.503906 -10.972656 5.671875 -11.796875 C 6.847656 -12.628906 8.101562 -13.257812 9.4375 -13.6875 C 10.132812 -13.894531 10.816406 -14.023438 11.484375 -14.078125 C 12.148438 -14.128906 12.828125 -14.15625 13.515625 -14.15625 C 12.878906 -13.625 12.226562 -12.835938 11.5625 -11.796875 C 10.894531 -10.753906 10.398438 -9.617188 10.078125 -8.390625 C 9.753906 -7.171875 9.753906 -5.945312 10.078125 -4.71875 C 10.398438 -3.539062 11.082031 -2.632812 12.125 -2 C 13.164062 -1.363281 14.269531 -1.148438 15.4375 -1.359375 C 14.800781 -0.828125 14.015625 -0.382812 13.078125 -0.03125 C 12.148438 0.3125 11.285156 0.5625 10.484375 0.71875 Z M 10.484375 0.71875" style="stroke:none"/></g></g><g style="fill:#8c52ff;fill-opacity:1;"><g transform="translate(212.602523, 211.874986)"><path d="M 15.921875 0.953125 C 13.304688 0.953125 10.914062 0.316406 8.75 -0.953125 C 6.59375 -2.234375 4.875 -3.941406 3.59375 -6.078125 C 2.320312 -8.210938 1.6875 -10.585938 1.6875 -13.203125 C 1.6875 -15.816406 2.320312 -18.1875 3.59375 -20.3125 C 4.875 -22.445312 6.59375 -24.15625 8.75 -25.4375 C 10.914062 -26.71875 13.304688 -27.359375 15.921875 -27.359375 C 17.035156 -27.359375 18.019531 -27.253906 18.875 -27.046875 C 16.90625 -26.398438 15.253906 -24.863281 13.921875 -22.4375 C 12.585938 -20.007812 11.921875 -17.195312 11.921875 -14 C 11.921875 -11.382812 12.425781 -9.035156 13.4375 -6.953125 C 14.445312 -4.878906 15.789062 -3.28125 17.46875 -2.15625 C 19.15625 -1.039062 21.039062 -0.640625 23.125 -0.953125 C 20.832031 0.378906 18.429688 1.015625 15.921875 0.953125 Z M 20.953125 -15.28125 C 19.617188 -15.28125 18.484375 -15.757812 17.546875 -16.71875 C 16.617188 -17.675781 16.15625 -18.820312 16.15625 -20.15625 C 16.15625 -21.488281 16.617188 -22.632812 17.546875 -23.59375 C 18.484375 -24.5625 19.617188 -25.046875 20.953125 -25.046875 C 22.347656 -25.046875 23.507812 -24.5625 24.4375 -23.59375 C 25.375 -22.632812 25.84375 -21.488281 25.84375 -20.15625 C 25.84375 -18.820312 25.375 -17.675781 24.4375 -16.71875 C 23.507812 -15.757812 22.347656 -15.28125 20.953125 -15.28125 Z M 20.953125 -15.28125" style="stroke:none"/></g></g><g style="fill:#8c52ff;fill-opacity:1;"><g transform="translate(237.319894, 211.874986)"><path d="M 17.6875 -0.875 C 14.695312 0.664062 12.09375 1.265625 9.875 0.921875 C 7.664062 0.578125 5.957031 -0.472656 4.75 -2.234375 C 3.550781 -3.992188 2.953125 -6.15625 2.953125 -8.71875 L 2.953125 -26.640625 C 5.140625 -26.910156 7.179688 -28.046875 9.078125 -30.046875 C 10.972656 -32.046875 12.210938 -34.484375 12.796875 -37.359375 L 12.796875 -5.515625 C 12.796875 -4.234375 13.035156 -3.257812 13.515625 -2.59375 C 13.992188 -1.925781 14.566406 -1.484375 15.234375 -1.265625 C 15.898438 -1.054688 16.472656 -0.9375 16.953125 -0.90625 C 17.441406 -0.882812 17.6875 -0.875 17.6875 -0.875 Z M 17.6875 -0.875" style="stroke:none"/></g></g><g style="fill:#8c52ff;fill-opacity:1;"><g transform="translate(251.558289, 211.874986)"><path d="M 13.84375 0.953125 C 11.550781 0.640625 9.484375 -0.179688 7.640625 -1.515625 C 5.796875 -2.847656 4.34375 -4.515625 3.28125 -6.515625 C 2.21875 -8.515625 1.6875 -10.691406 1.6875 -13.046875 L 1.6875 -13.28125 C 1.6875 -13.28125 1.6875 -13.289062 1.6875 -13.3125 C 1.6875 -13.34375 1.6875 -13.359375 1.6875 -13.359375 C 1.6875 -15.703125 2.21875 -17.875 3.28125 -19.875 C 4.34375 -21.875 5.796875 -23.539062 7.640625 -24.875 C 9.484375 -26.207031 11.550781 -27.035156 13.84375 -27.359375 C 13.570312 -27.148438 13.207031 -26.644531 12.75 -25.84375 C 12.300781 -25.039062 12.078125 -23.65625 12.078125 -21.6875 L 12.078125 -4.71875 C 12.078125 -2.75 12.300781 -1.363281 12.75 -0.5625 C 13.207031 0.238281 13.570312 0.742188 13.84375 0.953125 Z M 17.765625 0.953125 C 18.128906 0.742188 18.523438 0.238281 18.953125 -0.5625 C 19.378906 -1.363281 19.59375 -2.75 19.59375 -4.71875 L 19.59375 -21.6875 C 19.59375 -23.65625 19.378906 -25.039062 18.953125 -25.84375 C 18.523438 -26.644531 18.128906 -27.148438 17.765625 -27.359375 C 20.109375 -27.035156 22.195312 -26.207031 24.03125 -24.875 C 25.875 -23.539062 27.316406 -21.875 28.359375 -19.875 C 29.398438 -17.875 29.921875 -15.703125 29.921875 -13.359375 L 29.921875 -13.125 C 29.921875 -13.125 29.921875 -13.109375 29.921875 -13.078125 C 29.921875 -13.054688 29.921875 -13.046875 29.921875 -13.046875 C 29.921875 -10.691406 29.398438 -8.515625 28.359375 -6.515625 C 27.316406 -4.515625 25.875 -2.847656 24.03125 -1.515625 C 22.195312 -0.179688 20.109375 0.640625 17.765625 0.953125 Z M 17.765625 0.953125" style="stroke:none"/></g></g><g style="fill:#8c52ff;fill-opacity:1;"><g transform="translate(280.915198, 211.874986)"><path d="M 20.484375 -17.6875 C 19.148438 -17.6875 18 -18.164062 17.03125 -19.125 C 16.070312 -20.082031 15.59375 -21.226562 15.59375 -22.5625 C 15.59375 -23.894531 16.070312 -25.023438 17.03125 -25.953125 C 18 -26.890625 19.148438 -27.359375 20.484375 -27.359375 C 21.816406 -27.359375 22.945312 -26.890625 23.875 -25.953125 C 24.8125 -25.023438 25.28125 -23.894531 25.28125 -22.5625 C 25.28125 -21.226562 24.8125 -20.082031 23.875 -19.125 C 22.945312 -18.164062 21.816406 -17.6875 20.484375 -17.6875 Z M 3.359375 0 L 3.359375 -26.640625 L 13.28125 -26.640625 L 13.28125 0 Z M 3.359375 0" style="stroke:none"/></g></g><g style="fill:#8c52ff;fill-opacity:1;"><g transform="translate(305.072621, 211.874986)"><path d="M 23.921875 -17.6875 C 22.585938 -17.6875 21.441406 -18.164062 20.484375 -19.125 C 19.523438 -20.082031 19.046875 -21.226562 19.046875 -22.5625 C 19.046875 -23.894531 19.523438 -25.023438 20.484375 -25.953125 C 21.441406 -26.890625 22.585938 -27.359375 23.921875 -27.359375 C 25.304688 -27.359375 26.460938 -26.890625 27.390625 -25.953125 C 28.328125 -25.023438 28.796875 -23.894531 28.796875 -22.5625 C 28.796875 -21.226562 28.328125 -20.082031 27.390625 -19.125 C 26.460938 -18.164062 25.304688 -17.6875 23.921875 -17.6875 Z M 14.3125 0.953125 L 0.640625 -26.640625 L 10.5625 -26.640625 L 19.4375 -9.4375 Z M 5.515625 15.59375 C 4.179688 15.59375 3.035156 15.113281 2.078125 14.15625 C 1.117188 13.195312 0.640625 12.050781 0.640625 10.71875 C 0.640625 9.332031 1.117188 8.171875 2.078125 7.234375 C 3.035156 6.304688 4.179688 5.84375 5.515625 5.84375 C 6.898438 5.84375 8.0625 6.304688 9 7.234375 C 9.9375 8.171875 10.40625 9.332031 10.40625 10.71875 C 10.40625 12.050781 9.9375 13.195312 9 14.15625 C 8.0625 15.113281 6.898438 15.59375 5.515625 15.59375 Z M 5.515625 15.59375" style="stroke:none"/></g></g><g style="fill:#8c52ff;fill-opacity:1;"><g transform="translate(172.496369, 239.263677)"><path d="M 2.21875 0.078125 C 2 0.078125 1.773438 0.0507812 1.546875 0 C 1.328125 -0.0507812 1.117188 -0.132812 0.921875 -0.25 C 0.734375 -0.375 0.570312 -0.535156 0.4375 -0.734375 C 0.3125 -0.941406 0.234375 -1.191406 0.203125 -1.484375 L 1.109375 -1.484375 C 1.160156 -1.265625 1.242188 -1.09375 1.359375 -0.96875 C 1.472656 -0.851562 1.601562 -0.769531 1.75 -0.71875 C 1.90625 -0.675781 2.066406 -0.65625 2.234375 -0.65625 C 2.472656 -0.65625 2.671875 -0.703125 2.828125 -0.796875 C 2.984375 -0.898438 3.0625 -1.0625 3.0625 -1.28125 C 3.0625 -1.445312 3.007812 -1.570312 2.90625 -1.65625 C 2.800781 -1.738281 2.664062 -1.804688 2.5 -1.859375 C 2.332031 -1.910156 2.15625 -1.957031 1.96875 -2 C 1.78125 -2.039062 1.585938 -2.085938 1.390625 -2.140625 C 1.203125 -2.191406 1.03125 -2.265625 0.875 -2.359375 C 0.71875 -2.453125 0.59375 -2.570312 0.5 -2.71875 C 0.40625 -2.875 0.359375 -3.070312 0.359375 -3.3125 C 0.359375 -3.613281 0.425781 -3.863281 0.5625 -4.0625 C 0.707031 -4.257812 0.898438 -4.40625 1.140625 -4.5 C 1.390625 -4.601562 1.671875 -4.65625 1.984375 -4.65625 C 2.273438 -4.65625 2.550781 -4.601562 2.8125 -4.5 C 3.070312 -4.394531 3.289062 -4.238281 3.46875 -4.03125 C 3.65625 -3.820312 3.769531 -3.550781 3.8125 -3.21875 L 2.9375 -3.21875 C 2.875 -3.457031 2.753906 -3.632812 2.578125 -3.75 C 2.398438 -3.863281 2.195312 -3.921875 1.96875 -3.921875 C 1.75 -3.921875 1.566406 -3.875 1.421875 -3.78125 C 1.285156 -3.695312 1.21875 -3.566406 1.21875 -3.390625 C 1.21875 -3.253906 1.265625 -3.144531 1.359375 -3.0625 C 1.460938 -2.976562 1.59375 -2.910156 1.75 -2.859375 C 1.90625 -2.816406 2.078125 -2.773438 2.265625 -2.734375 C 2.460938 -2.691406 2.65625 -2.640625 2.84375 -2.578125 C 3.039062 -2.523438 3.222656 -2.445312 3.390625 -2.34375 C 3.554688 -2.25 3.6875 -2.117188 3.78125 -1.953125 C 3.882812 -1.796875 3.9375 -1.585938 3.9375 -1.328125 C 3.9375 -0.890625 3.785156 -0.546875 3.484375 -0.296875 C 3.179688 -0.046875 2.757812 0.078125 2.21875 0.078125 Z M 2.21875 0.078125" style="stroke:none"/></g></g><g style="fill:#8c52ff;fill-opacity:1;"><g transform="translate(176.37841, 239.263677)"><path d="M 0.953125 0 L 0.046875 0 L 1.65625 -4.578125 L 2.609375 -4.578125 L 4.21875 0 L 3.3125 0 L 3 -0.9375 L 1.25 -0.9375 Z M 2.125 -3.640625 L 1.5 -1.703125 L 2.765625 -1.703125 Z M 2.125 -3.640625" style="stroke:none"/></g></g><g style="fill:#8c52ff;fill-opacity:1;"><g transform="translate(180.34445, 239.263677)"><path d="M 3.109375 -1.984375 L 3.9375 0 L 3.015625 0 L 2.296875 -1.828125 L 1.265625 -1.828125 L 1.265625 0 L 0.40625 0 L 0.40625 -4.578125 L 2.375 -4.578125 C 2.664062 -4.578125 2.921875 -4.53125 3.140625 -4.4375 C 3.359375 -4.34375 3.523438 -4.195312 3.640625 -4 C 3.765625 -3.800781 3.828125 -3.546875 3.828125 -3.234375 C 3.828125 -2.929688 3.765625 -2.671875 3.640625 -2.453125 C 3.515625 -2.242188 3.335938 -2.085938 3.109375 -1.984375 Z M 2.265625 -3.796875 L 1.265625 -3.796875 L 1.265625 -2.59375 L 2.265625 -2.59375 C 2.492188 -2.59375 2.664062 -2.640625 2.78125 -2.734375 C 2.90625 -2.835938 2.96875 -2.992188 2.96875 -3.203125 C 2.96875 -3.390625 2.90625 -3.535156 2.78125 -3.640625 C 2.664062 -3.742188 2.492188 -3.796875 2.265625 -3.796875 Z M 2.265625 -3.796875" style="stroke:none"/></g></g><g style="fill:#8c52ff;fill-opacity:1;"><g transform="translate(184.184483, 239.263677)"><path d="M 0.953125 0 L 0.046875 0 L 1.65625 -4.578125 L 2.609375 -4.578125 L 4.21875 0 L 3.3125 0 L 3 -0.9375 L 1.25 -0.9375 Z M 2.125 -3.640625 L 1.5 -1.703125 L 2.765625 -1.703125 Z M 2.125 -3.640625" style="stroke:none"/></g></g><g style="fill:#8c52ff;fill-opacity:1;"><g transform="translate(188.150523, 239.263677)"><path d="M 0.640625 0 L 0.0625 0 L 0.0625 -0.78125 L 0.640625 -0.78125 C 0.796875 -0.78125 0.910156 -0.8125 0.984375 -0.875 C 1.066406 -0.945312 1.109375 -1.066406 1.109375 -1.234375 L 1.109375 -4.578125 L 1.984375 -4.578125 L 1.984375 -1.21875 C 1.984375 -0.925781 1.941406 -0.6875 1.859375 -0.5 C 1.773438 -0.320312 1.632812 -0.191406 1.4375 -0.109375 C 1.238281 -0.0351562 0.972656 0 0.640625 0 Z M 0.640625 0" style="stroke:none"/></g></g><g style="fill:#8c52ff;fill-opacity:1;"><g transform="translate(190.220542, 239.263677)"><path d="M 3.46875 0 L 0.40625 0 L 0.40625 -4.578125 L 3.46875 -4.578125 L 3.46875 -3.796875 L 1.265625 -3.796875 L 1.265625 -2.671875 L 3.234375 -2.671875 L 3.234375 -1.90625 L 1.265625 -1.90625 L 1.265625 -0.78125 L 3.46875 -0.78125 Z M 3.46875 0" style="stroke:none"/></g></g><g style="fill:#8c52ff;fill-opacity:1;"><g transform="translate(193.652577, 239.263677)"><path d="M 2.578125 0 L 1.625 0 L 0.015625 -4.578125 L 0.921875 -4.578125 L 2.109375 -0.953125 L 3.28125 -4.578125 L 4.1875 -4.578125 Z M 2.578125 0" style="stroke:none"/></g></g><g style="fill:#8c52ff;fill-opacity:1;"><g transform="translate(197.570613, 239.263677)"><path d="M 2.453125 0.078125 C 2.078125 0.078125 1.75 0.015625 1.46875 -0.109375 C 1.1875 -0.234375 0.953125 -0.40625 0.765625 -0.625 C 0.585938 -0.84375 0.453125 -1.09375 0.359375 -1.375 C 0.273438 -1.664062 0.234375 -1.972656 0.234375 -2.296875 C 0.234375 -2.609375 0.273438 -2.90625 0.359375 -3.1875 C 0.453125 -3.476562 0.585938 -3.734375 0.765625 -3.953125 C 0.953125 -4.171875 1.1875 -4.34375 1.46875 -4.46875 C 1.75 -4.59375 2.078125 -4.65625 2.453125 -4.65625 C 2.835938 -4.65625 3.164062 -4.59375 3.4375 -4.46875 C 3.71875 -4.34375 3.945312 -4.171875 4.125 -3.953125 C 4.3125 -3.734375 4.453125 -3.476562 4.546875 -3.1875 C 4.640625 -2.90625 4.6875 -2.609375 4.6875 -2.296875 C 4.6875 -1.972656 4.640625 -1.664062 4.546875 -1.375 C 4.453125 -1.09375 4.3125 -0.84375 4.125 -0.625 C 3.945312 -0.40625 3.71875 -0.234375 3.4375 -0.109375 C 3.164062 0.015625 2.835938 0.078125 2.453125 0.078125 Z M 2.453125 -0.6875 C 2.734375 -0.6875 2.972656 -0.753906 3.171875 -0.890625 C 3.367188 -1.023438 3.519531 -1.210938 3.625 -1.453125 C 3.726562 -1.691406 3.78125 -1.972656 3.78125 -2.296875 C 3.78125 -2.609375 3.726562 -2.882812 3.625 -3.125 C 3.519531 -3.363281 3.367188 -3.546875 3.171875 -3.671875 C 2.972656 -3.804688 2.734375 -3.875 2.453125 -3.875 C 2.179688 -3.875 1.945312 -3.804688 1.75 -3.671875 C 1.550781 -3.546875 1.398438 -3.363281 1.296875 -3.125 C 1.191406 -2.882812 1.140625 -2.609375 1.140625 -2.296875 C 1.140625 -1.972656 1.191406 -1.691406 1.296875 -1.453125 C 1.398438 -1.210938 1.550781 -1.023438 1.75 -0.890625 C 1.945312 -0.753906 2.179688 -0.6875 2.453125 -0.6875 Z M 2.453125 -0.6875" style="stroke:none"/></g></g><g style="fill:#8c52ff;fill-opacity:1;"><g transform="translate(171.972931, 246.063685)"><path d="M 3.46875 0 L 0.40625 0 L 0.40625 -4.578125 L 3.46875 -4.578125 L 3.46875 -3.796875 L 1.265625 -3.796875 L 1.265625 -2.671875 L 3.234375 -2.671875 L 3.234375 -1.90625 L 1.265625 -1.90625 L 1.265625 -0.78125 L 3.46875 -0.78125 Z M 3.46875 0" style="stroke:none"/></g></g><g style="fill:#8c52ff;fill-opacity:1;"><g transform="translate(175.404966, 246.063685)"><path d="M 2.21875 0.078125 C 2 0.078125 1.773438 0.0507812 1.546875 0 C 1.328125 -0.0507812 1.117188 -0.132812 0.921875 -0.25 C 0.734375 -0.375 0.570312 -0.535156 0.4375 -0.734375 C 0.3125 -0.941406 0.234375 -1.191406 0.203125 -1.484375 L 1.109375 -1.484375 C 1.160156 -1.265625 1.242188 -1.09375 1.359375 -0.96875 C 1.472656 -0.851562 1.601562 -0.769531 1.75 -0.71875 C 1.90625 -0.675781 2.066406 -0.65625 2.234375 -0.65625 C 2.472656 -0.65625 2.671875 -0.703125 2.828125 -0.796875 C 2.984375 -0.898438 3.0625 -1.0625 3.0625 -1.28125 C 3.0625 -1.445312 3.007812 -1.570312 2.90625 -1.65625 C 2.800781 -1.738281 2.664062 -1.804688 2.5 -1.859375 C 2.332031 -1.910156 2.15625 -1.957031 1.96875 -2 C 1.78125 -2.039062 1.585938 -2.085938 1.390625 -2.140625 C 1.203125 -2.191406 1.03125 -2.265625 0.875 -2.359375 C 0.71875 -2.453125 0.59375 -2.570312 0.5 -2.71875 C 0.40625 -2.875 0.359375 -3.070312 0.359375 -3.3125 C 0.359375 -3.613281 0.425781 -3.863281 0.5625 -4.0625 C 0.707031 -4.257812 0.898438 -4.40625 1.140625 -4.5 C 1.390625 -4.601562 1.671875 -4.65625 1.984375 -4.65625 C 2.273438 -4.65625 2.550781 -4.601562 2.8125 -4.5 C 3.070312 -4.394531 3.289062 -4.238281 3.46875 -4.03125 C 3.65625 -3.820312 3.769531 -3.550781 3.8125 -3.21875 L 2.9375 -3.21875 C 2.875 -3.457031 2.753906 -3.632812 2.578125 -3.75 C 2.398438 -3.863281 2.195312 -3.921875 1.96875 -3.921875 C 1.75 -3.921875 1.566406 -3.875 1.421875 -3.78125 C 1.285156 -3.695312 1.21875 -3.566406 1.21875 -3.390625 C 1.21875 -3.253906 1.265625 -3.144531 1.359375 -3.0625 C 1.460938 -2.976562 1.59375 -2.910156 1.75 -2.859375 C 1.90625 -2.816406 2.078125 -2.773438 2.265625 -2.734375 C 2.460938 -2.691406 2.65625 -2.640625 2.84375 -2.578125 C 3.039062 -2.523438 3.222656 -2.445312 3.390625 -2.34375 C 3.554688 -2.25 3.6875 -2.117188 3.78125 -1.953125 C 3.882812 -1.796875 3.9375 -1.585938 3.9375 -1.328125 C 3.9375 -0.890625 3.785156 -0.546875 3.484375 -0.296875 C 3.179688 -0.046875 2.757812 0.078125 2.21875 0.078125 Z M 2.21875 0.078125" style="stroke:none"/></g></g><g style="fill:#8c52ff;fill-opacity:1;"><g transform="translate(179.287007, 246.063685)"><path d="M 2.328125 0 L 1.453125 0 L 1.453125 -3.796875 L 0.0625 -3.796875 L 0.0625 -4.578125 L 3.71875 -4.578125 L 3.71875 -3.796875 L 2.328125 -3.796875 Z M 2.328125 0" style="stroke:none"/></g></g><g style="fill:#8c52ff;fill-opacity:1;"><g transform="translate(182.773043, 246.063685)"><path d="M 1.734375 0 L 0.40625 0 L 0.40625 -4.578125 L 1.734375 -4.578125 C 2.515625 -4.578125 3.109375 -4.378906 3.515625 -3.984375 C 3.929688 -3.585938 4.140625 -3.019531 4.140625 -2.28125 C 4.140625 -1.550781 3.929688 -0.988281 3.515625 -0.59375 C 3.097656 -0.195312 2.503906 0 1.734375 0 Z M 1.265625 -3.796875 L 1.265625 -0.78125 L 1.734375 -0.78125 C 2.035156 -0.78125 2.300781 -0.828125 2.53125 -0.921875 C 2.757812 -1.015625 2.9375 -1.171875 3.0625 -1.390625 C 3.195312 -1.609375 3.265625 -1.90625 3.265625 -2.28125 C 3.265625 -2.632812 3.203125 -2.921875 3.078125 -3.140625 C 2.953125 -3.367188 2.773438 -3.535156 2.546875 -3.640625 C 2.316406 -3.742188 2.046875 -3.796875 1.734375 -3.796875 Z M 1.265625 -3.796875" style="stroke:none"/></g></g><g style="fill:#8c52ff;fill-opacity:1;"><g transform="translate(186.847085, 246.063685)"><path d="" style="stroke:none"/></g></g><g style="fill:#8c52ff;fill-opacity:1;"><g transform="translate(188.161098, 246.063685)"><path d="M 3.609375 0 L 0.328125 0 L 0.328125 -0.65625 L 1.765625 -1.90625 C 2.035156 -2.15625 2.242188 -2.378906 2.390625 -2.578125 C 2.535156 -2.785156 2.609375 -3 2.609375 -3.21875 C 2.609375 -3.425781 2.550781 -3.59375 2.4375 -3.71875 C 2.332031 -3.851562 2.15625 -3.921875 1.90625 -3.921875 C 1.664062 -3.921875 1.472656 -3.84375 1.328125 -3.6875 C 1.191406 -3.539062 1.113281 -3.300781 1.09375 -2.96875 L 0.296875 -2.96875 C 0.316406 -3.507812 0.460938 -3.925781 0.734375 -4.21875 C 1.015625 -4.507812 1.410156 -4.65625 1.921875 -4.65625 C 2.210938 -4.65625 2.46875 -4.597656 2.6875 -4.484375 C 2.914062 -4.378906 3.09375 -4.222656 3.21875 -4.015625 C 3.34375 -3.816406 3.40625 -3.578125 3.40625 -3.296875 C 3.40625 -3.023438 3.347656 -2.773438 3.234375 -2.546875 C 3.117188 -2.316406 2.976562 -2.101562 2.8125 -1.90625 C 2.644531 -1.71875 2.476562 -1.550781 2.3125 -1.40625 L 1.609375 -0.78125 L 3.609375 -0.78125 Z M 3.609375 0" style="stroke:none"/></g></g><g style="fill:#8c52ff;fill-opacity:1;"><g transform="translate(191.755136, 246.063685)"><path d="M 2.015625 0.078125 C 1.671875 0.078125 1.375 0 1.125 -0.15625 C 0.875 -0.320312 0.679688 -0.578125 0.546875 -0.921875 C 0.410156 -1.273438 0.34375 -1.734375 0.34375 -2.296875 C 0.34375 -2.859375 0.410156 -3.3125 0.546875 -3.65625 C 0.679688 -4.007812 0.867188 -4.265625 1.109375 -4.421875 C 1.359375 -4.578125 1.65625 -4.65625 2 -4.65625 C 2.34375 -4.65625 2.640625 -4.570312 2.890625 -4.40625 C 3.140625 -4.25 3.332031 -3.992188 3.46875 -3.640625 C 3.601562 -3.296875 3.671875 -2.84375 3.671875 -2.28125 C 3.671875 -1.71875 3.601562 -1.257812 3.46875 -0.90625 C 3.34375 -0.5625 3.15625 -0.3125 2.90625 -0.15625 C 2.65625 0 2.359375 0.078125 2.015625 0.078125 Z M 2 -0.6875 C 2.164062 -0.6875 2.304688 -0.734375 2.421875 -0.828125 C 2.546875 -0.921875 2.640625 -1.082031 2.703125 -1.3125 C 2.773438 -1.550781 2.8125 -1.875 2.8125 -2.28125 C 2.8125 -2.695312 2.773438 -3.019531 2.703125 -3.25 C 2.640625 -3.476562 2.546875 -3.640625 2.421875 -3.734375 C 2.296875 -3.828125 2.148438 -3.875 1.984375 -3.875 C 1.828125 -3.875 1.6875 -3.828125 1.5625 -3.734375 C 1.445312 -3.640625 1.359375 -3.476562 1.296875 -3.25 C 1.234375 -3.019531 1.203125 -2.703125 1.203125 -2.296875 C 1.203125 -1.878906 1.234375 -1.550781 1.296875 -1.3125 C 1.367188 -1.082031 1.460938 -0.921875 1.578125 -0.828125 C 1.703125 -0.734375 1.84375 -0.6875 2 -0.6875 Z M 2 -0.6875" style="stroke:none"/></g></g><g style="fill:#8c52ff;fill-opacity:1;"><g transform="translate(195.48117, 246.063685)"><path d="M 3.609375 0 L 0.328125 0 L 0.328125 -0.65625 L 1.765625 -1.90625 C 2.035156 -2.15625 2.242188 -2.378906 2.390625 -2.578125 C 2.535156 -2.785156 2.609375 -3 2.609375 -3.21875 C 2.609375 -3.425781 2.550781 -3.59375 2.4375 -3.71875 C 2.332031 -3.851562 2.15625 -3.921875 1.90625 -3.921875 C 1.664062 -3.921875 1.472656 -3.84375 1.328125 -3.6875 C 1.191406 -3.539062 1.113281 -3.300781 1.09375 -2.96875 L 0.296875 -2.96875 C 0.316406 -3.507812 0.460938 -3.925781 0.734375 -4.21875 C 1.015625 -4.507812 1.410156 -4.65625 1.921875 -4.65625 C 2.210938 -4.65625 2.46875 -4.597656 2.6875 -4.484375 C 2.914062 -4.378906 3.09375 -4.222656 3.21875 -4.015625 C 3.34375 -3.816406 3.40625 -3.578125 3.40625 -3.296875 C 3.40625 -3.023438 3.347656 -2.773438 3.234375 -2.546875 C 3.117188 -2.316406 2.976562 -2.101562 2.8125 -1.90625 C 2.644531 -1.71875 2.476562 -1.550781 2.3125 -1.40625 L 1.609375 -0.78125 L 3.609375 -0.78125 Z M 3.609375 0" style="stroke:none"/></g></g><g style="fill:#8c52ff;fill-opacity:1;"><g transform="translate(199.075208, 246.063685)"><path d="M 1.953125 0.078125 C 1.648438 0.078125 1.378906 0.0195312 1.140625 -0.09375 C 0.910156 -0.207031 0.722656 -0.367188 0.578125 -0.578125 C 0.429688 -0.796875 0.34375 -1.050781 0.3125 -1.34375 L 1.1875 -1.34375 C 1.226562 -1.125 1.316406 -0.957031 1.453125 -0.84375 C 1.597656 -0.738281 1.773438 -0.6875 1.984375 -0.6875 C 2.222656 -0.6875 2.410156 -0.769531 2.546875 -0.9375 C 2.679688 -1.101562 2.75 -1.316406 2.75 -1.578125 C 2.75 -1.828125 2.675781 -2.03125 2.53125 -2.1875 C 2.394531 -2.34375 2.207031 -2.421875 1.96875 -2.421875 C 1.632812 -2.421875 1.382812 -2.265625 1.21875 -1.953125 L 0.375 -1.953125 L 0.859375 -4.578125 L 3.40625 -4.578125 L 3.40625 -3.796875 L 1.5 -3.796875 L 1.3125 -2.8125 C 1.414062 -2.914062 1.539062 -3 1.6875 -3.0625 C 1.84375 -3.125 2 -3.15625 2.15625 -3.15625 C 2.445312 -3.15625 2.703125 -3.085938 2.921875 -2.953125 C 3.140625 -2.816406 3.3125 -2.628906 3.4375 -2.390625 C 3.5625 -2.160156 3.625 -1.890625 3.625 -1.578125 C 3.625 -1.253906 3.550781 -0.96875 3.40625 -0.71875 C 3.269531 -0.46875 3.078125 -0.269531 2.828125 -0.125 C 2.578125 0.0078125 2.285156 0.078125 1.953125 0.078125 Z M 1.953125 0.078125" style="stroke:none"/></g></g><g style="fill:#8c52ff;fill-opacity:1;"><g transform="translate(154.431008, 226.37483)"><path d="M 4.53125 0.15625 C 3.832031 0.15625 3.222656 0.0390625 2.703125 -0.1875 C 2.191406 -0.425781 1.769531 -0.75 1.4375 -1.15625 C 1.101562 -1.5625 0.851562 -2.03125 0.6875 -2.5625 C 0.519531 -3.09375 0.4375 -3.648438 0.4375 -4.234375 C 0.4375 -4.816406 0.519531 -5.367188 0.6875 -5.890625 C 0.851562 -6.421875 1.101562 -6.890625 1.4375 -7.296875 C 1.769531 -7.703125 2.191406 -8.019531 2.703125 -8.25 C 3.222656 -8.488281 3.832031 -8.609375 4.53125 -8.609375 C 5.226562 -8.609375 5.828125 -8.488281 6.328125 -8.25 C 6.835938 -8.019531 7.242188 -7.691406 7.546875 -7.265625 C 7.859375 -6.847656 8.050781 -6.363281 8.125 -5.8125 L 6.375 -5.8125 C 6.300781 -6.257812 6.09375 -6.597656 5.75 -6.828125 C 5.40625 -7.054688 4.984375 -7.171875 4.484375 -7.171875 C 3.972656 -7.171875 3.535156 -7.046875 3.171875 -6.796875 C 2.816406 -6.554688 2.546875 -6.210938 2.359375 -5.765625 C 2.179688 -5.328125 2.09375 -4.816406 2.09375 -4.234375 C 2.09375 -3.648438 2.179688 -3.132812 2.359375 -2.6875 C 2.546875 -2.238281 2.816406 -1.890625 3.171875 -1.640625 C 3.535156 -1.398438 3.972656 -1.28125 4.484375 -1.28125 C 4.984375 -1.28125 5.40625 -1.398438 5.75 -1.640625 C 6.09375 -1.878906 6.300781 -2.25 6.375 -2.75 L 8.125 -2.75 C 8.050781 -2.164062 7.859375 -1.65625 7.546875 -1.21875 C 7.242188 -0.78125 6.835938 -0.441406 6.328125 -0.203125 C 5.828125 0.0351562 5.226562 0.15625 4.53125 0.15625 Z M 4.53125 0.15625" style="stroke:none"/></g></g><g style="fill:#8c52ff;fill-opacity:1;"><g transform="translate(162.924995, 226.37483)"><path d="M 1.75 0 L 0.078125 0 L 3.0625 -8.453125 L 4.8125 -8.453125 L 7.78125 0 L 6.109375 0 L 5.53125 -1.734375 L 2.3125 -1.734375 Z M 3.9375 -6.71875 L 2.765625 -3.140625 L 5.09375 -3.140625 Z M 3.9375 -6.71875" style="stroke:none"/></g></g><g style="fill:#8c52ff;fill-opacity:1;"><g transform="translate(170.787749, 226.37483)"><path d="M 2.34375 0 L 0.75 0 L 0.75 -8.453125 L 2.34375 -8.453125 L 2.34375 -4.703125 L 5.328125 -8.453125 L 7.28125 -8.453125 L 3.90625 -4.375 L 7.390625 0 L 5.40625 0 L 2.34375 -3.921875 Z M 2.34375 0" style="stroke:none"/></g></g><g style="fill:#8c52ff;fill-opacity:1;"><g transform="translate(178.207537, 226.37483)"><path d="M 6.390625 0 L 0.75 0 L 0.75 -8.453125 L 6.390625 -8.453125 L 6.390625 -7.03125 L 2.34375 -7.03125 L 2.34375 -4.9375 L 5.96875 -4.9375 L 5.96875 -3.515625 L 2.34375 -3.515625 L 2.34375 -1.421875 L 6.390625 -1.421875 Z M 6.390625 0" style="stroke:none"/></g></g><g style="fill:#8c52ff;fill-opacity:1;"><g transform="translate(185.084681, 226.37483)"><path d="" style="stroke:none"/></g></g><g style="fill:#8c52ff;fill-opacity:1;"><g transform="translate(188.052591, 226.37483)"><path d="M 4.109375 0.15625 C 3.703125 0.15625 3.289062 0.101562 2.875 0 C 2.457031 -0.09375 2.070312 -0.25 1.71875 -0.46875 C 1.363281 -0.695312 1.066406 -0.992188 0.828125 -1.359375 C 0.585938 -1.734375 0.441406 -2.195312 0.390625 -2.75 L 2.03125 -2.75 C 2.132812 -2.351562 2.289062 -2.039062 2.5 -1.8125 C 2.71875 -1.582031 2.96875 -1.421875 3.25 -1.328125 C 3.53125 -1.242188 3.820312 -1.203125 4.125 -1.203125 C 4.5625 -1.203125 4.925781 -1.296875 5.21875 -1.484375 C 5.507812 -1.671875 5.65625 -1.96875 5.65625 -2.375 C 5.65625 -2.664062 5.554688 -2.890625 5.359375 -3.046875 C 5.171875 -3.210938 4.925781 -3.34375 4.625 -3.4375 C 4.320312 -3.53125 3.988281 -3.613281 3.625 -3.6875 C 3.28125 -3.769531 2.929688 -3.859375 2.578125 -3.953125 C 2.234375 -4.046875 1.914062 -4.175781 1.625 -4.34375 C 1.332031 -4.519531 1.097656 -4.75 0.921875 -5.03125 C 0.753906 -5.320312 0.671875 -5.6875 0.671875 -6.125 C 0.671875 -6.675781 0.800781 -7.132812 1.0625 -7.5 C 1.320312 -7.863281 1.675781 -8.140625 2.125 -8.328125 C 2.570312 -8.515625 3.082031 -8.609375 3.65625 -8.609375 C 4.195312 -8.609375 4.707031 -8.507812 5.1875 -8.3125 C 5.675781 -8.125 6.082031 -7.832031 6.40625 -7.4375 C 6.738281 -7.050781 6.953125 -6.550781 7.046875 -5.9375 L 5.421875 -5.9375 C 5.316406 -6.382812 5.097656 -6.710938 4.765625 -6.921875 C 4.441406 -7.140625 4.0625 -7.25 3.625 -7.25 C 3.226562 -7.25 2.898438 -7.164062 2.640625 -7 C 2.378906 -6.832031 2.25 -6.585938 2.25 -6.265625 C 2.25 -6.003906 2.335938 -5.796875 2.515625 -5.640625 C 2.703125 -5.492188 2.941406 -5.378906 3.234375 -5.296875 C 3.523438 -5.210938 3.84375 -5.128906 4.1875 -5.046875 C 4.539062 -4.972656 4.894531 -4.882812 5.25 -4.78125 C 5.613281 -4.675781 5.945312 -4.53125 6.25 -4.34375 C 6.5625 -4.164062 6.804688 -3.925781 6.984375 -3.625 C 7.171875 -3.320312 7.265625 -2.929688 7.265625 -2.453125 C 7.265625 -1.648438 6.988281 -1.015625 6.4375 -0.546875 C 5.882812 -0.078125 5.109375 0.15625 4.109375 0.15625 Z M 4.109375 0.15625" style="stroke:none"/></g></g><g style="fill:#8c52ff;fill-opacity:1;"><g transform="translate(195.760312, 226.37483)"><path d="M 2.34375 0 L 0.75 0 L 0.75 -8.453125 L 2.34375 -8.453125 L 2.34375 -4.953125 L 5.96875 -4.953125 L 5.96875 -8.453125 L 7.5625 -8.453125 L 7.5625 0 L 5.96875 0 L 5.96875 -3.515625 L 2.34375 -3.515625 Z M 2.34375 0" style="stroke:none"/></g></g><g style="fill:#8c52ff;fill-opacity:1;"><g transform="translate(204.088189, 226.37483)"><path d="M 4.53125 0.15625 C 3.832031 0.15625 3.222656 0.0390625 2.703125 -0.1875 C 2.191406 -0.425781 1.769531 -0.75 1.4375 -1.15625 C 1.101562 -1.5625 0.851562 -2.03125 0.6875 -2.5625 C 0.519531 -3.09375 0.4375 -3.648438 0.4375 -4.234375 C 0.4375 -4.816406 0.519531 -5.367188 0.6875 -5.890625 C 0.851562 -6.421875 1.101562 -6.890625 1.4375 -7.296875 C 1.769531 -7.703125 2.191406 -8.019531 2.703125 -8.25 C 3.222656 -8.488281 3.832031 -8.609375 4.53125 -8.609375 C 5.226562 -8.609375 5.835938 -8.488281 6.359375 -8.25 C 6.878906 -8.019531 7.304688 -7.703125 7.640625 -7.296875 C 7.972656 -6.890625 8.222656 -6.421875 8.390625 -5.890625 C 8.554688 -5.367188 8.640625 -4.816406 8.640625 -4.234375 C 8.640625 -3.648438 8.554688 -3.09375 8.390625 -2.5625 C 8.222656 -2.03125 7.972656 -1.5625 7.640625 -1.15625 C 7.304688 -0.75 6.878906 -0.425781 6.359375 -0.1875 C 5.835938 0.0390625 5.226562 0.15625 4.53125 0.15625 Z M 4.53125 -1.28125 C 5.050781 -1.28125 5.492188 -1.398438 5.859375 -1.640625 C 6.222656 -1.890625 6.5 -2.238281 6.6875 -2.6875 C 6.882812 -3.132812 6.984375 -3.648438 6.984375 -4.234375 C 6.984375 -4.816406 6.882812 -5.328125 6.6875 -5.765625 C 6.5 -6.203125 6.222656 -6.546875 5.859375 -6.796875 C 5.492188 -7.046875 5.050781 -7.171875 4.53125 -7.171875 C 4.019531 -7.171875 3.582031 -7.046875 3.21875 -6.796875 C 2.851562 -6.546875 2.570312 -6.203125 2.375 -5.765625 C 2.1875 -5.328125 2.09375 -4.816406 2.09375 -4.234375 C 2.09375 -3.648438 2.1875 -3.132812 2.375 -2.6875 C 2.570312 -2.238281 2.851562 -1.890625 3.21875 -1.640625 C 3.582031 -1.398438 4.019531 -1.28125 4.53125 -1.28125 Z M 4.53125 -1.28125" style="stroke:none"/></g></g><g style="fill:#8c52ff;fill-opacity:1;"><g transform="translate(213.169121, 226.37483)"><path d="M 2.34375 0 L 0.75 0 L 0.75 -8.453125 L 4.390625 -8.453125 C 4.929688 -8.453125 5.398438 -8.363281 5.796875 -8.1875 C 6.203125 -8.019531 6.515625 -7.75 6.734375 -7.375 C 6.960938 -7.007812 7.078125 -6.535156 7.078125 -5.953125 C 7.078125 -5.421875 6.960938 -4.957031 6.734375 -4.5625 C 6.515625 -4.175781 6.203125 -3.878906 5.796875 -3.671875 C 5.398438 -3.472656 4.929688 -3.375 4.390625 -3.375 L 2.34375 -3.375 Z M 2.34375 -7.03125 L 2.34375 -4.78125 L 4.171875 -4.78125 C 4.597656 -4.78125 4.925781 -4.875 5.15625 -5.0625 C 5.382812 -5.25 5.5 -5.53125 5.5 -5.90625 C 5.5 -6.269531 5.382812 -6.546875 5.15625 -6.734375 C 4.925781 -6.929688 4.597656 -7.03125 4.171875 -7.03125 Z M 2.34375 -7.03125" style="stroke:none"/></g></g></g></svg>