<svg xmlns="http://www.w3.org/2000/svg" xmlns:xlink="http://www.w3.org/1999/xlink" width="500" zoomAndPan="magnify" viewBox="0 0 375 374.999991" height="500" preserveAspectRatio="xMidYMid meet" version="1.2"><defs/><g id="089471fd65"><g style="fill:#8c52ff;fill-opacity:1;"><g transform="translate(82.089803, 273.518959)"><path style="stroke:none" d="M 63.328125 3.375 C 63.328125 3.375 61.398438 2.578125 57.546875 0.984375 C 53.703125 -0.609375 48.921875 -3.234375 43.203125 -6.890625 C 37.484375 -10.554688 31.757812 -15.34375 26.03125 -21.25 C 20.3125 -27.15625 15.523438 -34.425781 11.671875 -43.0625 C 7.828125 -51.695312 5.90625 -61.734375 5.90625 -73.171875 C 5.90625 -84.804688 7.828125 -94.9375 11.671875 -103.5625 C 15.523438 -112.195312 20.3125 -119.5625 26.03125 -125.65625 C 31.757812 -131.757812 37.484375 -136.734375 43.203125 -140.578125 C 48.921875 -144.429688 53.703125 -147.25 57.546875 -149.03125 C 61.398438 -150.8125 63.328125 -151.703125 63.328125 -151.703125 C 63.328125 -151.703125 62.4375 -150.859375 60.65625 -149.171875 C 58.875 -147.484375 56.804688 -144.054688 54.453125 -138.890625 C 52.109375 -133.734375 50.046875 -125.992188 48.265625 -115.671875 C 46.484375 -105.359375 45.59375 -91.566406 45.59375 -74.296875 C 45.59375 -57.035156 46.484375 -43.195312 48.265625 -32.78125 C 50.046875 -22.375 52.109375 -14.585938 54.453125 -9.421875 C 56.804688 -4.265625 58.875 -0.84375 60.65625 0.84375 C 62.4375 2.53125 63.328125 3.375 63.328125 3.375 Z M 99.359375 -114.828125 C 94.660156 -114.828125 90.625 -116.46875 87.25 -119.75 C 83.875 -123.039062 82.1875 -127.03125 82.1875 -131.71875 C 82.1875 -136.59375 83.875 -140.671875 87.25 -143.953125 C 90.625 -147.242188 94.660156 -148.890625 99.359375 -148.890625 C 104.234375 -148.890625 108.3125 -147.242188 111.59375 -143.953125 C 114.875 -140.671875 116.515625 -136.59375 116.515625 -131.71875 C 116.515625 -127.03125 114.875 -123.039062 111.59375 -119.75 C 108.3125 -116.46875 104.234375 -114.828125 99.359375 -114.828125 Z M 99.359375 -114.828125 "/></g></g><g style="fill:#8c52ff;fill-opacity:1;"><g transform="translate(196.356301, 273.518959)"><path style="stroke:none" d="M 11.828125 -0.28125 L 11.828125 -148.609375 L 46.71875 -148.328125 L 46.71875 -0.28125 Z M 73.734375 -148.328125 L 108.359375 -148.328125 L 108.359375 -113.984375 C 108.359375 -113.984375 107.515625 -116.046875 105.828125 -120.171875 C 104.140625 -124.304688 100.570312 -129.28125 95.125 -135.09375 C 89.875 -140.726562 84.992188 -144.34375 80.484375 -145.9375 C 75.984375 -147.53125 73.734375 -148.328125 73.734375 -148.328125 Z M 56.859375 -71.484375 C 57.796875 -71.484375 59.8125 -72.28125 62.90625 -73.875 C 66 -75.476562 69.328125 -78.15625 72.890625 -81.90625 C 77.210938 -86.21875 79.984375 -90.015625 81.203125 -93.296875 C 82.421875 -96.585938 83.03125 -98.234375 83.03125 -98.234375 L 83.03125 -44.75 C 83.03125 -44.75 82.421875 -46.390625 81.203125 -49.671875 C 79.984375 -52.960938 77.210938 -56.765625 72.890625 -61.078125 C 69.328125 -64.828125 66 -67.5 62.90625 -69.09375 C 59.8125 -70.6875 57.796875 -71.484375 56.859375 -71.484375 Z M 56.859375 -71.484375 "/></g></g></g></svg>